<svg width="129" height="119" viewBox="0 0 129 119" fill="none" xmlns="http://www.w3.org/2000/svg">
<path d="M16.875 116.138C15.7177 116.138 14.6534 115.931 13.682 115.518C12.7314 115.105 11.9564 114.433 11.357 113.503C10.7784 112.573 10.489 111.333 10.489 109.783C10.489 109.535 10.5097 109.266 10.551 108.977C10.5924 108.688 10.6647 108.409 10.768 108.14L13.217 107.954C13.155 108.243 13.1034 108.512 13.062 108.76C13.0207 108.987 13 109.204 13 109.411C13 110.486 13.1757 111.292 13.527 111.829C13.899 112.366 14.3744 112.728 14.953 112.914C15.5524 113.1 16.2034 113.193 16.906 113.193C17.712 113.193 18.425 113.09 19.045 112.883C19.6857 112.676 20.2024 112.408 20.595 112.077L21.401 114.774C20.905 115.208 20.2127 115.539 19.324 115.766C18.456 116.014 17.6397 116.138 16.875 116.138ZM11.822 89.23C13.806 89.23 15.5214 89.6537 16.968 90.501C18.4147 91.3483 19.5307 92.5573 20.316 94.128C21.1014 95.6987 21.494 97.5793 21.494 99.77C21.494 101.961 21.1014 103.841 20.316 105.412C19.5307 106.983 18.4147 108.192 16.968 109.039C15.5214 109.886 13.806 110.31 11.822 110.31C9.85871 110.31 8.15371 109.886 6.70704 109.039C5.26037 108.192 4.14437 106.983 3.35904 105.412C2.57371 103.841 2.18104 101.961 2.18104 99.77C2.18104 97.5793 2.57371 95.6987 3.35904 94.128C4.14437 92.5573 5.26037 91.3483 6.70704 90.501C8.15371 89.6537 9.85871 89.23 11.822 89.23ZM11.822 92.113C10.5407 92.113 9.43504 92.4127 8.50504 93.012C7.59571 93.6113 6.89304 94.4793 6.39704 95.616C5.90104 96.7527 5.65304 98.1373 5.65304 99.77C5.65304 101.382 5.90104 102.767 6.39704 103.924C6.89304 105.061 7.59571 105.929 8.50504 106.528C9.43504 107.127 10.5407 107.427 11.822 107.427C13.124 107.427 14.2297 107.127 15.139 106.528C16.069 105.929 16.782 105.061 17.278 103.924C17.774 102.767 18.022 101.382 18.022 99.77C18.022 98.1373 17.774 96.7527 17.278 95.616C16.782 94.4793 16.069 93.6113 15.139 93.012C14.2297 92.4127 13.124 92.113 11.822 92.113ZM31.4797 110.31C30.467 110.31 29.5267 110.124 28.6587 109.752C27.8113 109.38 27.1293 108.781 26.6127 107.954C26.096 107.127 25.8377 106.053 25.8377 104.73V94.5H29.1547V103.893C29.1547 105.298 29.4543 106.27 30.0537 106.807C30.653 107.324 31.49 107.582 32.5647 107.582C33.0813 107.582 33.5773 107.499 34.0527 107.334C34.5487 107.148 34.993 106.869 35.3857 106.497C35.7783 106.104 36.078 105.608 36.2847 105.009C36.512 104.41 36.6257 103.707 36.6257 102.901V94.5H39.9427V110H37.0287L36.8737 107.489C36.3363 108.46 35.613 109.173 34.7037 109.628C33.7943 110.083 32.7197 110.31 31.4797 110.31ZM46.7988 91.896C46.0754 91.896 45.5174 91.7203 45.1248 91.369C44.7528 90.997 44.5668 90.4803 44.5668 89.819C44.5668 89.1577 44.7528 88.6513 45.1248 88.3C45.5174 87.9487 46.0754 87.773 46.7988 87.773C47.5014 87.773 48.0388 87.9487 48.4108 88.3C48.8034 88.6513 48.9998 89.1577 48.9998 89.819C48.9998 90.4803 48.8034 90.997 48.4108 91.369C48.0388 91.7203 47.5014 91.896 46.7988 91.896ZM48.4418 94.5V110H45.1248V94.5H48.4418ZM60.3276 94.19C61.5676 94.19 62.6216 94.376 63.4896 94.748C64.3783 95.0993 65.1223 95.6057 65.7216 96.267C66.3209 96.9283 66.7756 97.6827 67.0856 98.53L63.9546 99.77C63.6859 98.8193 63.2519 98.096 62.6526 97.6C62.0739 97.0833 61.3093 96.825 60.3586 96.825C59.4286 96.825 58.6329 97.042 57.9716 97.476C57.3103 97.8893 56.8039 98.499 56.4526 99.305C56.1219 100.111 55.9566 101.103 55.9566 102.281C55.9566 103.438 56.1323 104.42 56.4836 105.226C56.8349 106.032 57.3413 106.642 58.0026 107.055C58.6639 107.468 59.4493 107.675 60.3586 107.675C61.0613 107.675 61.6709 107.561 62.1876 107.334C62.7043 107.086 63.1279 106.745 63.4586 106.311C63.8099 105.856 64.0476 105.309 64.1716 104.668L67.1786 105.691C66.8893 106.621 66.4346 107.437 65.8146 108.14C65.2153 108.822 64.4609 109.359 63.5516 109.752C62.6423 110.124 61.5986 110.31 60.4206 110.31C58.8913 110.31 57.5376 109.99 56.3596 109.349C55.1816 108.708 54.2619 107.789 53.6006 106.59C52.9599 105.371 52.6396 103.924 52.6396 102.25C52.6396 100.576 52.9599 99.1397 53.6006 97.941C54.2619 96.7217 55.1713 95.7917 56.3286 95.151C57.5066 94.5103 58.8396 94.19 60.3276 94.19ZM85.6708 94.5L78.7578 101.568L78.0448 102.064L73.1778 107.117L73.1468 103.335L81.7338 94.5H85.6708ZM74.3558 87.525V110H71.0388V87.525H74.3558ZM79.1608 99.708L86.0428 110H82.1988L76.6808 101.599L79.1608 99.708ZM89.5771 110V89.54H97.6371C100.096 89.54 101.894 90.036 103.031 91.028C104.168 92.02 104.736 93.3943 104.736 95.151C104.736 96.2257 104.426 97.1867 103.806 98.034C103.186 98.8607 102.277 99.3877 101.078 99.615V99.646C102.401 99.8527 103.424 100.4 104.147 101.289C104.891 102.157 105.263 103.17 105.263 104.327C105.263 106.084 104.622 107.468 103.341 108.481C102.06 109.494 100.2 110 97.7611 110H89.5771ZM92.8321 107.241H97.9161C99.2181 107.241 100.189 106.972 100.83 106.435C101.491 105.898 101.822 105.143 101.822 104.172C101.822 103.201 101.491 102.446 100.83 101.909C100.189 101.372 99.2181 101.103 97.9161 101.103H92.8321V107.241ZM92.8321 98.344H97.3891C99.9931 98.344 101.295 97.3417 101.295 95.337C101.295 93.3323 99.9931 92.33 97.3891 92.33H92.8321V98.344ZM111.311 91.896C110.588 91.896 110.03 91.7203 109.637 91.369C109.265 90.997 109.079 90.4803 109.079 89.819C109.079 89.1577 109.265 88.6513 109.637 88.3C110.03 87.9487 110.588 87.773 111.311 87.773C112.014 87.773 112.551 87.9487 112.923 88.3C113.316 88.6513 113.512 89.1577 113.512 89.819C113.512 90.4803 113.316 90.997 112.923 91.369C112.551 91.7203 112.014 91.896 111.311 91.896ZM112.954 94.5V110H109.637V94.5H112.954ZM122.67 89.943V105.35C122.67 106.115 122.867 106.673 123.259 107.024C123.673 107.375 124.22 107.551 124.902 107.551C125.46 107.551 125.946 107.468 126.359 107.303C126.773 107.117 127.155 106.869 127.506 106.559L128.25 108.977C127.775 109.39 127.186 109.721 126.483 109.969C125.801 110.196 125.037 110.31 124.189 110.31C123.301 110.31 122.484 110.165 121.74 109.876C120.996 109.587 120.418 109.122 120.004 108.481C119.591 107.82 119.374 106.962 119.353 105.908V90.873L122.67 89.943ZM128.002 94.5V97.104H116.377V94.5H128.002Z" fill="#FE734C"/>
<path d="M90.8731 40.691C94.3015 37.8229 96.5936 34.0017 97.3255 29.9318C98.0674 25.8067 97.1245 21.9202 94.6708 18.9876C92.4165 16.2927 89.1397 14.7108 85.3688 14.4747C85.7808 10.8587 84.8931 7.30133 82.5776 4.53365C77.5498 -1.47486 67.6648 -1.51673 60.5442 4.44237C56.4777 7.84482 54.1924 12.7814 53.7151 18.084C53.0209 17.6209 51.9372 16.8002 50.6903 15.4771C49.8922 14.6313 48.7927 14.4521 47.8213 15.0081C46.6824 15.6605 45.7705 17.3764 46.3232 19.2714C46.9747 21.504 49.5924 23.7056 54.3163 25.9968C55.2074 29.6731 56.9492 33.2547 59.5578 36.3716C62.3489 39.7079 65.5537 42.1867 69.0248 43.7267C70.4024 48.5159 72.0496 51.3372 74.0552 52.3337C74.6456 52.6277 75.2443 52.7533 75.8113 52.7533C76.9142 52.7533 77.8931 52.2759 78.4408 51.6219C79.1501 50.7753 79.1668 49.6774 78.4852 48.7554C77.4945 47.4181 76.9049 46.2976 76.5658 45.5447C76.9183 45.5632 77.2701 45.5715 77.6209 45.5715C82.4261 45.5732 87.0662 43.8774 90.8731 40.691ZM89.3524 23.4368C92.3035 26.9632 91.214 32.7531 86.9239 36.3431C85.285 37.7132 83.8916 38.4091 82.1137 38.7432C80.4899 39.0472 78.8545 39.0891 77.2558 38.868C75.7284 38.6569 74.2562 38.2357 72.8426 37.652C72.0253 35.3491 71.7682 32.5103 72.4105 29.7903C74.7076 29.0341 76.8522 27.8492 78.7791 26.2371C80.6675 24.6577 82.1598 22.8079 83.2618 20.8366C85.7289 20.8106 87.9304 21.7368 89.3524 23.4368ZM79.1283 15.2928C76.781 16.0482 74.5962 17.2558 72.6374 18.8963C70.4484 20.7277 68.8037 22.7828 67.7168 24.9642C65.5453 24.8931 62.6571 23.8907 60.4764 22.4587C60.3039 21.324 60.231 20.1206 60.2419 18.8109C60.2771 16.595 60.8692 12.4356 64.4274 9.45685C68.7175 5.86766 74.6087 5.81658 77.5598 9.34296C78.8913 10.9341 79.4348 13.0352 79.1283 15.2928ZM67.0167 26.5981C66.7328 27.3869 66.5142 28.1875 66.3744 28.9981C65.0462 28.9387 63.966 28.6966 62.2559 27.7847C61.7108 26.7714 61.2879 25.7514 60.9738 24.6912C62.925 25.7146 65.1191 26.4147 67.0167 26.5981ZM66.2027 30.6671C66.1617 31.5104 66.1968 32.3595 66.3124 33.2112C65.8887 32.7799 65.4758 32.3285 65.078 31.8529C64.6275 31.3144 64.213 30.7868 63.8328 30.2668C64.6543 30.5147 65.4088 30.6252 66.2027 30.6671ZM68.4369 35.0803C66.7696 29.7141 68.6346 24.4291 73.7119 20.1792C75.2251 18.913 76.8874 17.9433 78.6543 17.2516C77.9936 19.1299 76.7827 20.8667 75.1313 22.2493C70.5657 26.0696 69.7065 32.0229 70.806 36.6748C69.9862 36.2125 69.1998 35.6724 68.4369 35.0803ZM47.9302 18.8025C47.6329 17.7825 48.0734 16.7943 48.6529 16.4619C48.9501 16.2919 49.203 16.3421 49.471 16.626C51.475 18.7522 53.123 19.7228 53.6221 19.9908C53.6112 21.2905 53.7008 22.6027 53.9027 23.9124C49.579 21.6497 48.2509 19.902 47.9302 18.8025ZM77.157 50.5467C76.7425 51.0441 75.7242 51.2945 74.8005 50.8347C73.8216 50.3482 72.4113 48.8258 71.0095 44.4929C72.207 44.8907 73.4313 45.1771 74.6774 45.3563C74.9228 46.0455 75.6036 47.6793 77.1394 49.7528C77.3605 50.0534 77.3664 50.298 77.157 50.5467ZM75.6798 43.7987C70.1478 43.2276 65.0169 40.2882 60.8415 35.298C53.1264 26.0763 53.4814 12.5344 61.6178 5.72697C64.8503 3.02294 68.6949 1.66799 72.2824 1.66799C75.8121 1.66799 79.0923 2.98023 81.2914 5.6089C85.7263 10.9098 84.1177 19.5872 77.7047 24.9542C76.276 26.1492 74.721 27.0896 73.0687 27.773C73.7378 26.207 74.7578 24.7465 76.2057 23.5348C78.6058 21.5275 80.2103 18.8494 80.7236 15.9963C81.247 13.0871 80.5796 10.3428 78.8444 8.26939C75.3013 4.0337 68.3507 3.99183 63.353 8.17392C59.2822 11.5797 58.6073 16.2852 58.5671 18.7866C58.5671 18.7866 58.5679 18.7883 58.5679 18.7899L58.5671 18.7924C58.5537 20.3492 58.6542 21.7645 58.8803 23.0968C58.8811 23.1035 58.8828 23.1102 58.8836 23.1169C59.4857 26.6475 60.9948 29.5843 63.7926 32.929C66.0947 35.6799 68.8196 37.7391 71.8268 39.0514C71.8746 39.074 71.9214 39.0958 71.9725 39.1091C73.5846 39.7975 75.2711 40.2849 77.0247 40.5286C77.7742 40.6333 78.5304 40.6852 79.2891 40.6852C80.3317 40.6852 81.3793 40.5872 82.4227 40.3904C84.4794 40.0044 86.1467 39.1787 87.9983 37.6286C92.9968 33.4465 94.1801 26.5981 90.637 22.3632C89.0559 20.4731 86.7145 19.3535 84.0858 19.181C84.5171 18.1811 84.8596 17.1628 85.0882 16.137C88.4697 16.3061 91.3974 17.6862 93.3854 20.0628C95.5158 22.6086 96.3289 26.0093 95.6766 29.6371C95.0142 33.32 92.9265 36.7903 89.7987 39.4081C85.7866 42.7637 80.7747 44.3204 75.6798 43.7987Z" fill="#FE734C"/>
<path d="M32.6464 46.904C31.5519 49.2789 31.8877 52.0416 33.5232 54.1142L37.9431 59.7149C39.2913 61.4241 41.3438 62.3913 43.4131 62.3913C44.032 62.3913 44.6525 62.3042 45.2563 62.1258C45.8977 61.9357 46.3968 61.6736 46.8047 61.3227L52.5243 65.6279C53.6891 66.5047 55.0658 66.9645 56.4275 66.9645C57.0396 66.9645 57.6493 66.8715 58.2355 66.6814C59.361 66.3163 60.1465 65.7259 60.6364 64.8784L61.5827 63.2379L65.5135 64.9672C66.2237 65.2804 66.917 65.442 67.5736 65.4496C67.5912 65.4496 67.6096 65.4496 67.6272 65.4496C70.1554 65.4496 72.5621 63.6206 74.4086 60.2944C74.6305 59.8941 74.4907 59.3916 74.0946 59.1622L66.2228 54.6166C66.4849 53.0364 65.8937 51.3699 64.5815 50.3349L59.9221 46.6586C60.3902 45.585 60.2579 44.3163 59.4958 43.3499L54.442 36.9461C53.6807 35.9814 52.4782 35.5569 51.3259 35.7612L48.8128 30.3305C48.1136 28.8173 46.6355 27.8559 45.0419 27.7387L42.4425 18.9968C42.3119 18.5597 41.8563 18.3042 41.415 18.429C37.7237 19.4582 35.3789 21.3935 34.8119 23.8781C34.6662 24.5171 34.6629 25.2281 34.8019 25.9935L35.574 30.2459L33.7518 30.7869C32.8122 31.0658 32.056 31.6921 31.4388 32.7021C30.4046 34.3954 30.2907 36.5634 31.1348 38.5021L34.0139 45.1161C33.4662 45.5113 33.0299 46.0716 32.6464 46.904ZM67.6297 63.7739C67.6171 63.7739 67.6046 63.7739 67.592 63.7739C67.1632 63.7688 66.6909 63.6541 66.1885 63.4339L62.4243 61.7783L65.635 56.2103L72.5261 60.1889C71.5287 61.7716 69.8313 63.7739 67.6297 63.7739ZM64.2415 55.2723L59.186 64.041C58.9088 64.5209 58.4432 64.8541 57.7196 65.0886C56.3513 65.5316 54.7845 65.2335 53.5325 64.2906L47.9612 60.0967L58.9356 48.0119L63.5456 51.6496C64.6367 52.5105 64.9357 54.069 64.2415 55.2723ZM36.4508 25.6937C36.3528 25.1527 36.3511 24.6662 36.4466 24.25C36.9407 22.0844 39.3005 20.8885 41.0801 20.2839L43.3553 27.9363L37.1902 29.7661L36.4508 25.6937ZM32.8691 33.5747C33.2661 32.9257 33.6973 32.5488 34.2291 32.3922L43.9315 29.5132C45.2647 29.1187 46.7109 29.7719 47.2946 31.0331L49.7809 36.406L35.4743 44.2694L32.6715 37.8313C32.0451 36.3943 32.1196 34.8023 32.8691 33.5747ZM34.1671 47.6057C34.4728 46.9425 34.7692 46.569 35.1595 46.3538L51.1274 37.5776C51.3686 37.4444 51.6307 37.3808 51.8895 37.3808C52.3593 37.3808 52.819 37.5918 53.128 37.9837L58.1819 44.3875C58.6617 44.9971 58.6324 45.8547 58.1116 46.4291L45.8617 59.9175C45.618 60.1855 45.2856 60.3714 44.7806 60.5205C42.8093 61.1042 40.5893 60.3656 39.2578 58.679L34.8379 53.0783C33.5943 51.5014 33.3372 49.4045 34.1671 47.6057Z" fill="#FE734C"/>
</svg>
